<svg xmlns="http://www.w3.org/2000/svg" viewBox="0 0 64 64">
  <!-- Fond violet arrondi -->
  <rect width="64" height="64" rx="14" fill="#6C2BD9"/>

  <!-- Pin / goutte -->
  <path d="M32 8 C22 8 15 16 15 25 C15 36 32 56 32 56 C32 56 49 36 49 25 C49 16 42 8 32 8Z"
        fill="white" opacity="0.15"/>
  <path d="M32 10 C23 10 17 17.5 17 25.5 C17 36 32 54 32 54 C32 54 47 36 47 25.5 C47 17.5 41 10 32 10Z"
        fill="#E8470A"/>

  <!-- Carrosserie voiture -->
  <path d="M22 29 L23.5 24.5 Q24.2 23 25.5 23 L38.5 23 Q39.8 23 40.5 24.5 L42 29 Q43 29.5 43 31 L43 33 Q43 34 42 34 L40.5 34 Q40 34 40 33.2 L40 32.5 L24 32.5 L24 33.2 Q24 34 23.5 34 L22 34 Q21 34 21 33 L21 31 Q21 29.5 22 29Z"
        fill="white"/>

  <!-- Vitres -->
  <path d="M26 24.2 L27.8 28.5 L23.5 28.5 L24.3 25 Q24.7 24.2 26 24.2Z" fill="#6C2BD9" opacity="0.5"/>
  <path d="M28.5 24 L28.5 28.5 L35.5 28.5 L35.5 24Z" fill="#6C2BD9" opacity="0.5"/>
  <path d="M36.5 24 L38 24 Q39.3 24 39.7 25 L40.5 28.5 L36.5 28.5Z" fill="#6C2BD9" opacity="0.5"/>

  <!-- Roues -->
  <circle cx="26" cy="33.5" r="2.8" fill="#3d1a6e"/>
  <circle cx="38" cy="33.5" r="2.8" fill="#3d1a6e"/>
  <circle cx="26" cy="33.5" r="1.1" fill="#c4b5fd"/>
  <circle cx="38" cy="33.5" r="1.1" fill="#c4b5fd"/>

  <!-- Route (trait orange) -->
  <path d="M18 31.5 Q32 30 46 31.5" stroke="#E8470A" stroke-width="1" fill="none" opacity="0.6"/>
</svg>
